<svg width="20" height="21" viewBox="0 0 20 21" fill="none" xmlns="http://www.w3.org/2000/svg">
<path fill-rule="evenodd" clip-rule="evenodd" d="M5.665 2C3.135 2 1.5 3.733 1.5 6.416V14.584C1.5 17.267 3.135 19 5.665 19H14.333C16.864 19 18.5 17.267 18.5 14.584V6.416C18.5 3.733 16.864 2 14.334 2H5.665ZM14.333 20.5H5.665C2.276 20.5 0 18.122 0 14.584V6.416C0 2.878 2.276 0.5 5.665 0.5H14.334C17.723 0.5 20 2.878 20 6.416V14.584C20 18.122 17.723 20.5 14.333 20.5Z" fill="#F93E6C"/>
<path fill-rule="evenodd" clip-rule="evenodd" d="M8.8132 13.6229C8.6222 13.6229 8.4292 13.5499 8.2832 13.4029L5.9092 11.0299C5.6162 10.7369 5.6162 10.2629 5.9092 9.96995C6.2022 9.67695 6.6762 9.67695 6.9692 9.96995L8.8132 11.8119L13.0292 7.59695C13.3222 7.30395 13.7962 7.30395 14.0892 7.59695C14.3822 7.88995 14.3822 8.36395 14.0892 8.65695L9.3432 13.4029C9.1972 13.5499 9.0052 13.6229 8.8132 13.6229Z" fill="#F93E6C"/>
</svg>
