<svg width="14" height="16" viewBox="0 0 14 16" fill="none" xmlns="http://www.w3.org/2000/svg">
<path d="M12.9997 12.6667H8.87967C8.78013 12.3871 8.6196 12.1332 8.40974 11.9233C8.19988 11.7135 7.94594 11.553 7.66634 11.4534V10.0001H9.66634C10.1968 10.0001 10.7055 9.78937 11.0806 9.41429C11.4556 9.03922 11.6663 8.53051 11.6663 8.00008V5.33341C11.6663 5.33341 11.6663 5.33341 11.6663 5.29341C11.6594 5.23217 11.646 5.17183 11.6263 5.11341V5.05341C11.5943 4.98487 11.5515 4.92186 11.4997 4.86675L7.49967 0.866748C7.44456 0.814892 7.38156 0.772135 7.31301 0.740081C7.29311 0.737255 7.27291 0.737255 7.25301 0.740081C7.18528 0.701242 7.11049 0.676311 7.03301 0.666748H4.33301C3.80257 0.666748 3.29387 0.877462 2.91879 1.25253C2.54372 1.62761 2.33301 2.13631 2.33301 2.66675V8.00008C2.33301 8.53051 2.54372 9.03922 2.91879 9.41429C3.29387 9.78937 3.80257 10.0001 4.33301 10.0001H6.33301V11.4534C6.05341 11.553 5.79947 11.7135 5.58961 11.9233C5.37975 12.1332 5.21922 12.3871 5.11967 12.6667H0.999674C0.822863 12.6667 0.653294 12.737 0.52827 12.862C0.403246 12.987 0.333008 13.1566 0.333008 13.3334C0.333008 13.5102 0.403246 13.6798 0.52827 13.8048C0.653294 13.9298 0.822863 14.0001 0.999674 14.0001H5.11967C5.25981 14.3862 5.51543 14.7198 5.85178 14.9555C6.18814 15.1913 6.58893 15.3177 6.99967 15.3177C7.41042 15.3177 7.81121 15.1913 8.14756 14.9555C8.48392 14.7198 8.73954 14.3862 8.87967 14.0001H12.9997C13.1765 14.0001 13.3461 13.9298 13.4711 13.8048C13.5961 13.6798 13.6663 13.5102 13.6663 13.3334C13.6663 13.1566 13.5961 12.987 13.4711 12.862C13.3461 12.737 13.1765 12.6667 12.9997 12.6667ZM7.66634 2.94008L9.39301 4.66675H8.33301C8.1562 4.66675 7.98663 4.59651 7.8616 4.47149C7.73658 4.34646 7.66634 4.17689 7.66634 4.00008V2.94008ZM4.33301 8.66675C4.1562 8.66675 3.98663 8.59651 3.8616 8.47149C3.73658 8.34646 3.66634 8.17689 3.66634 8.00008V2.66675C3.66634 2.48994 3.73658 2.32037 3.8616 2.19534C3.98663 2.07032 4.1562 2.00008 4.33301 2.00008H6.33301V4.00008C6.33301 4.53051 6.54372 5.03922 6.91879 5.41429C7.29387 5.78937 7.80258 6.00008 8.33301 6.00008H10.333V8.00008C10.333 8.17689 10.2628 8.34646 10.1377 8.47149C10.0127 8.59651 9.84315 8.66675 9.66634 8.66675H4.33301ZM6.99967 14.0001C6.86782 14.0001 6.73893 13.961 6.62929 13.8877C6.51966 13.8145 6.43421 13.7104 6.38375 13.5885C6.3333 13.4667 6.32009 13.3327 6.34582 13.2034C6.37154 13.074 6.43504 12.9552 6.52827 12.862C6.62151 12.7688 6.74029 12.7053 6.86961 12.6796C6.99894 12.6538 7.13298 12.667 7.2548 12.7175C7.37661 12.768 7.48073 12.8534 7.55399 12.963C7.62724 13.0727 7.66634 13.2016 7.66634 13.3334C7.66634 13.5102 7.5961 13.6798 7.47108 13.8048C7.34606 13.9298 7.17649 14.0001 6.99967 14.0001Z" fill="#83828E"/>
</svg>
