<svg width="10" height="15" viewBox="0 0 10 15" fill="none" xmlns="http://www.w3.org/2000/svg">
<path d="M4.0531 7.00001L8.7731 2.28001C9.02143 2.0302 9.16082 1.69226 9.16082 1.34001C9.16082 0.987765 9.02143 0.64983 8.7731 0.400013C8.64915 0.275042 8.50168 0.175849 8.3392 0.108157C8.17672 0.0404659 8.00244 0.00561523 7.82643 0.00561523C7.65041 0.00561523 7.47614 0.0404659 7.31366 0.108157C7.15118 0.175849 7.00371 0.275042 6.87976 0.400013L1.22643 6.05335C1.10146 6.1773 1.00227 6.32476 0.934574 6.48724C0.866883 6.64972 0.832031 6.824 0.832031 7.00001C0.832031 7.17603 0.866883 7.3503 0.934574 7.51278C1.00227 7.67526 1.10146 7.82273 1.22643 7.94668L6.87976 13.6667C7.00435 13.7903 7.1521 13.888 7.31455 13.9544C7.477 14.0207 7.65095 14.0544 7.82643 14.0533C8.0019 14.0544 8.17585 14.0207 8.3383 13.9544C8.50075 13.888 8.64851 13.7903 8.7731 13.6667C9.02143 13.4169 9.16082 13.0789 9.16082 12.7267C9.16082 12.3744 9.02143 12.0365 8.7731 11.7867L4.0531 7.00001Z" fill="#9897A1"/>
</svg>
