<svg width="12" height="14" viewBox="0 0 12 14" fill="none" xmlns="http://www.w3.org/2000/svg">
<path d="M6.00033 7.66661C5.82351 7.66661 5.65394 7.73685 5.52892 7.86188C5.4039 7.9869 5.33366 8.15647 5.33366 8.33328V10.3333C5.33366 10.5101 5.4039 10.6797 5.52892 10.8047C5.65394 10.9297 5.82351 10.9999 6.00033 10.9999C6.17714 10.9999 6.34671 10.9297 6.47173 10.8047C6.59675 10.6797 6.66699 10.5101 6.66699 10.3333V8.33328C6.66699 8.15647 6.59675 7.9869 6.47173 7.86188C6.34671 7.73685 6.17714 7.66661 6.00033 7.66661ZM9.33366 4.99995H4.00033V3.66661C3.99935 3.27074 4.11589 2.88348 4.33516 2.55388C4.55444 2.22429 4.8666 1.96718 5.23211 1.81512C5.59762 1.66306 6.00003 1.6229 6.38839 1.69971C6.77674 1.77652 7.13356 1.96686 7.41366 2.24661C7.66429 2.50266 7.84356 2.81983 7.93366 3.16661C7.95554 3.25153 7.99394 3.33131 8.04666 3.4014C8.09938 3.47148 8.16539 3.53049 8.24091 3.57506C8.31644 3.61963 8.4 3.64889 8.48684 3.66117C8.57367 3.67345 8.66207 3.6685 8.74699 3.64661C8.83191 3.62473 8.91169 3.58633 8.98177 3.53361C9.05186 3.48089 9.11087 3.41488 9.15544 3.33936C9.20001 3.26383 9.22927 3.18027 9.24155 3.09344C9.25382 3.0066 9.24888 2.9182 9.22699 2.83328C9.07511 2.25648 8.77388 1.7299 8.35366 1.30661C7.88711 0.841524 7.29322 0.525104 6.64696 0.397309C6.00071 0.269513 5.33108 0.336073 4.72263 0.588584C4.11418 0.841095 3.59419 1.26823 3.22833 1.81606C2.86247 2.36389 2.66713 3.00785 2.66699 3.66661V4.99995C2.13656 4.99995 1.62785 5.21066 1.25278 5.58573C0.877706 5.96081 0.666992 6.46951 0.666992 6.99995V11.6666C0.666992 12.197 0.877706 12.7058 1.25278 13.0808C1.62785 13.4559 2.13656 13.6666 2.66699 13.6666H9.33366C9.86409 13.6666 10.3728 13.4559 10.7479 13.0808C11.1229 12.7058 11.3337 12.197 11.3337 11.6666V6.99995C11.3337 6.46951 11.1229 5.96081 10.7479 5.58573C10.3728 5.21066 9.86409 4.99995 9.33366 4.99995ZM10.0003 11.6666C10.0003 11.8434 9.93009 12.013 9.80506 12.138C9.68004 12.263 9.51047 12.3333 9.33366 12.3333H2.66699C2.49018 12.3333 2.32061 12.263 2.19559 12.138C2.07056 12.013 2.00033 11.8434 2.00033 11.6666V6.99995C2.00033 6.82314 2.07056 6.65357 2.19559 6.52854C2.32061 6.40352 2.49018 6.33328 2.66699 6.33328H9.33366C9.51047 6.33328 9.68004 6.40352 9.80506 6.52854C9.93009 6.65357 10.0003 6.82314 10.0003 6.99995V11.6666Z" fill="white"/>
</svg>
