<svg width="12" height="7" viewBox="0 0 12 7" fill="none" xmlns="http://www.w3.org/2000/svg">
<path d="M10.9997 4.91007L6.7097 0.670066C6.61674 0.576337 6.50614 0.501943 6.38428 0.451175C6.26242 0.400406 6.13172 0.374268 5.9997 0.374268C5.86769 0.374268 5.73699 0.400406 5.61513 0.451175C5.49327 0.501943 5.38267 0.576337 5.2897 0.670066L1.0497 4.91007C0.955976 5.00303 0.881582 5.11363 0.830813 5.23549C0.780044 5.35735 0.753906 5.48805 0.753906 5.62007C0.753906 5.75208 0.780044 5.88278 0.830813 6.00464C0.881582 6.1265 0.955976 6.2371 1.0497 6.33007C1.23707 6.51632 1.49052 6.62086 1.7547 6.62086C2.01889 6.62086 2.27234 6.51632 2.4597 6.33007L5.9997 2.79007L9.5397 6.33007C9.72596 6.51481 9.97736 6.61896 10.2397 6.62007C10.3713 6.62083 10.5018 6.5956 10.6236 6.54584C10.7454 6.49607 10.8563 6.42275 10.9497 6.33007C11.0468 6.24045 11.1251 6.13248 11.1802 6.01241C11.2353 5.89233 11.2661 5.76253 11.2708 5.63049C11.2754 5.49846 11.2539 5.36681 11.2073 5.24315C11.1608 5.1195 11.0902 5.00629 10.9997 4.91007Z" fill="#9897A1"/>
</svg>
